<?xml version="1.0" encoding="iso-8859-1"?>
<!-- Uploaded to: SVG Repo, www.svgrepo.com, Generator: SVG Repo Mixer Tools -->
<svg height="800px" width="800px" version="1.1" id="Layer_1" xmlns="http://www.w3.org/2000/svg" xmlns:xlink="http://www.w3.org/1999/xlink" 
	 viewBox="0 0 511.969 511.969" xml:space="preserve">
<g transform="translate(1 1)">
	<polygon style="fill:#EA6148;" points="33.1,212.302 144.033,212.302 144.033,178.168 33.1,178.168 	"/>
	<polygon style="fill:#23A24D;" points="50.167,178.168 161.1,178.168 161.1,144.035 50.167,144.035 	"/>
	<polygon style="fill:#88C057;" points="33.1,144.035 144.033,144.035 144.033,109.902 33.1,109.902 	"/>
	<path style="fill:#7383BF;" d="M382.967,212.302h-85.333v-14.217c0-6.289,5.094-11.383,11.383-11.383h62.566
		c6.289,0,11.383,5.094,11.383,11.383v14.217H382.967z"/>
	<path style="fill:#434C6D;" d="M391.467,220.802H289.134v-22.717c0-10.964,8.919-19.883,19.883-19.883h62.566
		c10.964,0,19.884,8.919,19.884,19.883V220.802z M306.134,203.802h68.333v-5.717c0-1.59-1.294-2.883-2.884-2.883h-62.566
		c-1.59,0-2.883,1.293-2.883,2.883V203.802z"/>
	<polygon style="fill:#7383BF;" points="323.233,186.702 357.367,186.702 357.367,161.102 323.233,161.102 	"/>
	<path style="fill:#434C6D;" d="M365.867,195.202h-51.134v-42.6h51.134V195.202z M331.733,178.202h17.134v-8.6h-17.134V178.202z"/>
	<path style="fill:#7383BF;" d="M451.233,161.102H229.367c-4.71,0-8.533-3.823-8.533-8.533V16.035c0-4.71,3.823-8.533,8.533-8.533
		h221.867c4.71,0,8.533,3.823,8.533,8.533v136.533C459.767,157.279,455.944,161.102,451.233,161.102"/>
	<g>
		<path style="fill:#434C6D;" d="M451.233,169.602H229.367c-9.392,0-17.033-7.641-17.033-17.033V16.035
			c0-9.393,7.641-17.034,17.033-17.034h221.867c9.393,0,17.033,7.641,17.033,17.034v136.533
			C468.267,161.96,460.626,169.602,451.233,169.602z M229.367,16.001l-0.033,136.567l221.9,0.033c0.01,0,0.015,0,0.015,0
			l0.019-136.566L229.367,16.001z"/>
		<path style="fill:#434C6D;" d="M246.433,58.702c-2.185,0-4.369-0.836-6.033-2.5c-3.337-3.337-3.337-8.73,0-12.066l17.067-17.067
			c3.337-3.337,8.73-3.337,12.066,0c3.337,3.337,3.337,8.73,0,12.066l-17.067,17.067C250.803,57.865,248.618,58.702,246.433,58.702"
			/>
		<path style="fill:#434C6D;" d="M254.967,92.718c-2.193,0-4.386-0.845-6.05-2.517c-3.328-3.345-3.311-8.747,0.034-12.066
			l42.65-42.53c3.337-3.337,8.73-3.337,12.066,0c3.337,3.328,3.337,8.73,0,12.066l-42.684,42.564
			C259.319,91.89,257.143,92.718,254.967,92.718"/>
	</g>
	<path style="fill:#7383BF;" d="M220.833,126.968v25.6c0,4.71,3.823,8.533,8.533,8.533h221.867c4.71,0,8.533-3.823,8.533-8.533
		v-25.6C459.766,126.968,220.833,126.968,220.833,126.968z"/>
	<path style="fill:#434C6D;" d="M451.233,169.602H229.367c-9.392,0-17.033-7.641-17.033-17.033v-34.1h255.933v34.1
		C468.267,161.96,460.626,169.602,451.233,169.602z M229.333,135.468v17.1l221.9,0.033l0.022-17.133L229.333,135.468
		L229.333,135.468z"/>
	<g>
		<path style="fill:#69432E;" d="M417.109,510.968c-0.572,0-1.16-0.06-1.749-0.179c-4.617-0.964-7.578-5.478-6.613-10.095
			l42.667-204.8c0.956-4.617,5.453-7.586,10.095-6.613c4.617,0.964,7.578,5.478,6.613,10.095l-42.667,204.8
			C424.618,508.203,421.068,510.968,417.109,510.968"/>
		<path style="fill:#69432E;" d="M502.425,510.968c-3.959,0-7.509-2.765-8.346-6.793l-42.667-204.8
			c-0.964-4.617,1.997-9.131,6.613-10.095c4.617-0.973,9.131,1.997,10.095,6.613l42.667,204.8c0.964,4.617-1.997,9.131-6.613,10.095
			C503.585,510.909,502.997,510.968,502.425,510.968"/>
	</g>
	<polygon style="fill:#845C46;" points="7.5,246.435 502.434,246.435 502.434,212.302 7.5,212.302 	"/>
	<path style="fill:#553323;" d="M510.934,254.935H-1v-51.133h511.934V254.935z M16,237.935h477.934v-17.133H16V237.935z"/>
	<polygon style="fill:#845C46;" points="476.833,297.635 442.7,297.635 434.167,246.435 485.367,246.435 	"/>
	<path style="fill:#553323;" d="M484.033,306.135H435.5l-11.367-68.2h71.269L484.033,306.135z M449.9,289.135h19.732l5.7-34.2H444.2
		L449.9,289.135z"/>
	<polygon style="fill:#845C46;" points="24.567,331.768 178.167,331.768 178.167,246.435 24.567,246.435 	"/>
	<path style="fill:#553323;" d="M186.667,340.268h-170.6V237.935h170.6V340.268z M33.067,323.268h136.6v-68.333h-136.6V323.268z"/>
	<polygon style="fill:#845C46;" points="24.567,417.102 178.167,417.102 178.167,331.768 24.567,331.768 	"/>
	<path style="fill:#553323;" d="M186.667,425.602h-170.6V323.268h170.6V425.602z M33.067,408.602h136.6v-68.334h-136.6V408.602z"/>
	<polygon style="fill:#845C46;" points="24.567,502.435 178.167,502.435 178.167,417.102 24.567,417.102 	"/>
	<path style="fill:#553323;" d="M186.667,510.935h-170.6V408.602h170.6V510.935z M33.067,493.935h136.6v-68.333h-136.6V493.935z"/>
	<g>
		<path style="fill:#D7B740;" d="M109.9,297.635H92.833c-4.71,0-8.533-3.823-8.533-8.533s3.823-8.533,8.533-8.533H109.9
			c4.71,0,8.533,3.823,8.533,8.533S114.611,297.635,109.9,297.635"/>
		<path style="fill:#D7B740;" d="M109.9,382.968H92.833c-4.71,0-8.533-3.823-8.533-8.533s3.823-8.533,8.533-8.533H109.9
			c4.71,0,8.533,3.823,8.533,8.533S114.611,382.968,109.9,382.968"/>
		<path style="fill:#D7B740;" d="M109.9,468.302H92.833c-4.71,0-8.533-3.823-8.533-8.533s3.823-8.533,8.533-8.533H109.9
			c4.71,0,8.533,3.823,8.533,8.533S114.611,468.302,109.9,468.302"/>
	</g>
</g>
</svg>